<?xml version="1.0" encoding="UTF-8"?>
<!DOCTYPE svg PUBLIC "-//W3C//DTD SVG 1.1//EN" "http://www.w3.org/Graphics/SVG/1.1/DTD/svg11.dtd">
<!-- Creator: CorelDRAW 2019 -->
<svg xmlns="http://www.w3.org/2000/svg" xml:space="preserve" width="203.729mm" height="39.4892mm" version="1.1" style="shape-rendering:geometricPrecision; text-rendering:geometricPrecision; image-rendering:optimizeQuality; fill-rule:evenodd; clip-rule:evenodd"
viewBox="0 0 20972.12 4065.06"
 xmlns:xlink="http://www.w3.org/1999/xlink"
 xmlns:xodm="http://www.corel.com/coreldraw/odm/2003">
 <defs>
  <style type="text/css">
   <![CDATA[
    .fil1 {fill:#0079F6;fill-rule:nonzero}
    .fil0 {fill:#7A8CA7;fill-rule:nonzero}
   ]]>
  </style>
 </defs>
 <g id="Слой_x0020_1">
  <metadata id="CorelCorpID_0Corel-Layer"/>
  <path class="fil0" d="M3266.05 2641.91c63.3,0 94.97,81.04 94.97,243.06 -6.98,115.2 -43.99,226.64 -107.29,323.18 -77.13,128.96 -174.16,244.91 -287.51,343.4 -117.96,104.04 -250.35,190.33 -393.05,256.29 -131.66,64.01 -275.74,98.3 -422.05,100.42 -186.41,0 -311.26,-163.8 -374.56,-491.43 -91.19,149.23 -215.05,275.7 -362.27,369.85 -179.52,105.22 -385.78,155.77 -593.51,145.33 -110.51,4.8 -220.81,-13.51 -323.87,-53.68 -103.1,-40.2 -196.7,-101.35 -274.92,-179.7 -73.32,-73.43 -130.82,-161.29 -168.93,-257.93 -38.1,-96.63 -56.02,-200.02 -52.64,-303.87 0,-598.85 198.72,-1070.87 596.15,-1416.11 136.97,-125.49 297.45,-222.47 472.17,-285.3 149.48,-46.39 305.13,-69.49 461.63,-68.74 137.17,-4.42 273.27,25.87 395.66,88.06 49.25,-102.09 105.49,-153.19 168.81,-153.19 66.36,2.21 131.64,17.57 192,45.19 60.39,27.7 114.67,67.06 159.71,115.94 92.36,73.73 151.79,181.07 165.32,298.59 -63.32,143.49 -135.58,282.88 -216.31,417.41 -32.5,225.71 -46.6,453.62 -42.22,681.65 0,293.51 36.94,440.31 110.8,440.31 91.43,0 313.03,-183.19 664.73,-549.53 63.3,-72.8 109.04,-109.19 137.17,-109.19zm-2490.11 320.5c0,271.25 100.23,406.89 300.69,406.89 214.55,-3.51 392.15,-117.99 532.86,-343.42 54.09,-88.68 94.94,-184.86 121.34,-285.39 -5.81,-341.19 29.63,-681.81 105.51,-1014.51 -284.82,56.36 -544.9,200.49 -743.86,412.15 -104.97,109.39 -187.03,238.65 -241.4,380.17 -54.36,141.54 -79.91,292.6 -75.15,444.12z"/>
  <path class="fil0" d="M5592.59 2289.72c0,-117.41 -66.81,-176.08 -200.46,-176.08 -91.46,0 -193.47,88.02 -306,264.14 -111.97,176.36 -193.95,370.08 -242.68,573.35l0 10.54c0.84,125.26 19.51,249.82 55.4,369.9 28.84,85.47 47.45,174.26 55.37,264.15 0,117.41 -149.48,234.86 -448.42,352.27 -38.54,16.07 -79.65,25.02 -121.34,26.41 -41.37,1.12 -81.93,-11.9 -115,-36.85 -33.06,-24.94 -56.68,-60.32 -67.02,-100.52 -37.65,-120.47 -54.59,-246.38 -50.09,-372.51 0,-156.78 4.39,-303.58 13.16,-440.31 8.79,-136.84 17.59,-265.34 26.39,-385.72 8.79,-117.41 17.59,-221.35 26.38,-311.81 8.77,-90.34 13.19,-163.44 13.19,-219.22 0,-117.45 -54.5,-176.11 -163.55,-176.11 -109.04,0 -235.65,127.69 -379.84,383.05 -144.19,255.35 -216.31,457.95 -216.31,607.62 -1.29,140.24 17.35,279.86 55.39,414.84 28.87,85.54 47.48,174.23 55.4,264.14 0,117.41 -149.47,234.83 -448.42,352.24 -38.54,16.1 -79.64,25.07 -121.34,26.46 -41.37,1 -81.82,-12.13 -114.86,-37.07 -33,-24.84 -56.68,-60.22 -67.16,-100.32 -39.42,-137.3 -56.36,-280.04 -50.12,-422.69 -8.44,-362.07 10.98,-724.13 58.05,-1083.25 54.2,-331.39 176.35,-648.09 358.73,-929.96 19.15,-39.93 48.04,-74.47 84,-100.25 35.95,-25.85 77.81,-42.3 121.75,-47.67 117.25,0 224.5,95.17 321.82,285.3 25.47,43.69 46.68,89.69 63.3,137.39 67.52,-96.01 156.69,-174.72 260.27,-229.76 103.56,-55.16 218.63,-85.01 335.89,-87.21 149.17,-0.76 293.5,52.73 406.23,150.59 56.16,45.35 101.24,102.9 131.71,168.4 30.48,65.5 45.6,137.11 44.13,209.36l0 58.1c90.29,-124.06 208.52,-225.14 345.08,-294.9 136.59,-69.74 287.68,-106.33 440.99,-106.63 78.34,-5.61 157,4.63 231.3,30.04 74.29,25.42 142.77,65.51 201.33,117.89 48.15,47.5 86.09,104.31 111.51,167.03 25.41,62.65 37.72,129.89 36.22,197.52 1.11,131.01 -9.51,261.93 -31.69,391.09 -21.1,117.41 -44.83,226.52 -71.21,327.52 -26.39,100.96 -50.12,191.69 -71.22,272.18 -18,60.14 -28.63,122.2 -31.65,184.93 0,43.99 14.08,66.08 42.2,66.08 74.57,-10.36 143.43,-45.74 195.2,-100.43 77.41,-66.99 154.76,-140.07 232.14,-219.34l213.66 -219.24c67.44,-68.72 112.87,-103.01 136.26,-103.01 49.25,0 73.9,58.67 73.9,176.11 0,246.57 -123.98,486.14 -371.95,718.58 -207.79,216.36 -491.78,342.77 -791.36,352.27 -253.21,0 -379.83,-230.69 -379.83,-692.16 5.17,-161.68 24.59,-322.62 58.04,-480.89 31.32,-146.62 50.44,-295.74 57.14,-445.59z"/>
  <path class="fil0" d="M8494.23 3443.32c-118.45,152.53 -269.97,276.13 -443.19,361.24 -173.23,85.16 -363.56,129.7 -556.55,130.16 -388.58,0 -679.66,-99.49 -873.1,-298.59 -95.47,-97.75 -170.01,-214.08 -218.99,-341.65 -48.99,-127.69 -71.41,-264.03 -65.9,-400.68 -11.17,-398.47 130.43,-786.05 395.66,-1083.17 130.37,-149.02 292.24,-267.08 473.8,-345.6 181.65,-78.64 378.43,-115.79 576.03,-108.84 161.6,-5.91 322.73,19.2 474.87,74 207.52,84.51 311.26,163.8 311.26,237.69 0,58.78 -145.15,88.16 -435.25,88.16 -135.52,-2.5 -270.05,22.91 -395.3,74.75 -125.21,51.83 -238.45,128.88 -332.81,226.44 -96.9,99.22 -172.84,217.1 -223.09,346.45 -50.36,129.43 -73.99,267.66 -69.67,406.4 -4.52,145.8 45.38,288.08 139.78,398.93 50.16,54.99 112.07,97.87 180.98,125.56 68.94,27.81 143.21,39.63 217.4,34.75 148.66,5.46 295.82,-31.15 424.7,-105.7 -120.85,-79.17 -218.96,-188.56 -284.65,-317.36 -65.7,-128.88 -96.71,-272.53 -89.99,-417.02 -2.39,-172.13 63.03,-338.24 182.02,-462.42 59.95,-67.98 133.96,-122.05 216.84,-158.51 82.86,-36.5 172.76,-54.53 263.29,-52.76 195.12,0 335.01,53.68 419.36,161.12 88.42,121.67 133.02,269.76 126.65,420.07 -3.51,186.9 -44.8,371.12 -121.31,541.57l31.62 0c148.16,-1.2 290.45,-58.37 398.28,-160.29 42.22,-42.22 78.33,-79.25 108.18,-110.96 10.71,-13.4 24.02,-24.49 39.17,-32.68 15.06,-8.14 31.67,-13.24 48.77,-14.9 49.25,0 73.81,58.77 73.81,176.19 6.76,89.71 -6.92,179.79 -39.7,263.48 -32.9,83.7 -84.27,158.93 -150.13,220 -115.4,100.5 -263.13,155.84 -415.93,155.84 -129.73,1.94 -259.26,-8.69 -386.91,-31.67zm-47.51 -616.41c56.46,-115.29 86.48,-241.59 87.95,-369.93 0,-117.41 -38.71,-176.08 -116.02,-176.08 -31.71,0 -58.02,22.9 -79.18,68.63 -19.96,41.21 -30.78,86.29 -31.59,132.12 -1.94,64.57 9.42,128.78 33.33,188.84 23.86,59.97 59.79,114.37 105.51,159.93l0 -3.51z"/>
  <path class="fil1" d="M20444.49 3933.82c291.37,0 527.62,-236.6 527.62,-528.37 0,-291.86 -236.25,-528.36 -527.62,-528.36 -291.41,0 -527.54,236.5 -527.54,528.36 0,291.77 236.14,528.37 527.54,528.37z"/>
  <path class="fil1" d="M15002.67 2738.71c58.58,0 87.87,81.04 87.87,243.06 -8.59,114.39 -46.75,224.59 -110.77,319.67 -77.05,129.08 -174.16,244.91 -287.5,343.48 -117.89,104.12 -250.28,190.43 -393.03,256.29 -126.57,62.37 -265.15,96.63 -406.23,100.34 -107.07,5.99 -213.43,-19.77 -305.98,-73.92 -75.38,-50.16 -136.1,-119.45 -175.92,-200.84 -58.56,-117.41 -107.8,-345.44 -147.63,-684.24 -21.9,-237.33 -60.62,-472.74 -116.13,-704.55 -87.67,-15.8 -170.1,-53.02 -240.04,-108.26 -32.52,-23.1 -59.13,-53.77 -77.33,-89.34 -18.19,-35.57 -27.54,-75.03 -27.26,-115.02 -2.86,-36.96 6.09,-74 25.52,-105.6 19.39,-31.59 48.32,-56.27 82.58,-70.51 77.51,-36.39 162.33,-54.39 247.96,-52.84 88.32,-1.28 175.27,22.55 250.57,68.74 96.72,-77.6 178.13,-172.57 240.12,-280.12 66.24,-139.97 96.53,-294.35 87.87,-449.1 3.59,-84.63 -11.55,-169.06 -44.37,-247.22 -32.88,-78.06 -82.59,-147.9 -145.51,-204.55 -121.39,-113.25 -305.43,-169.98 -552.19,-169.98 -189.13,-6.3 -378.15,13.29 -561.91,58.09 -114.94,32.98 -227,75.39 -335.01,126.87 -93.2,45.81 -175.81,88.02 -247.96,126.83 -61.8,35.96 -131.63,55.89 -203.07,58.12 -63.27,0 -94.97,-20.23 -94.97,-60.79 15.44,-73.73 49.98,-142.09 100.25,-198.17 83.24,-106.26 182.93,-198.45 295.46,-273.02 323.82,-228.65 711.66,-348.57 1107.9,-342.47 354.01,-12.12 705.1,68.91 1018.13,235.14 147.62,79.45 269.86,198.8 352.9,344.6 82.96,145.8 123.44,311.99 116.67,479.69 13.14,272.06 -71.03,540 -237.41,755.55 -156.7,197.25 -364.83,347.18 -601.44,433.3 54.31,120.82 97.65,246.38 129.24,375.19 33.45,133.75 65.96,257.11 97.64,369.82 25.42,97.09 61.72,191.06 108.11,280.02 11.92,30.39 32.06,56.92 58.2,76.51 26.06,19.58 57.08,31.51 89.53,34.45 79.83,-9.78 154.19,-46 211,-103.01 82.69,-68.63 164.45,-143.56 245.4,-224.59 80.84,-81.04 152.98,-155.85 216.28,-224.51 66.79,-68.71 114.29,-103.1 142.45,-103.1zm-2294.92 -1902.17c45.76,0 68.55,58.75 68.55,176.16 0.38,113.01 -6.64,225.99 -21.05,338.14 -29.19,192.46 -69.75,382.95 -121.39,570.7 -126.58,479.03 -189.95,759.05 -189.95,840.08l0 776.7c7.57,79.45 -9.07,159.28 -47.69,229.12 -38.59,69.75 -97.37,126.21 -168.6,161.97l-192.53 88.04c-65.59,29.01 -136.73,43.44 -208.45,42.22 -147.7,0 -221.54,-169.9 -221.54,-509.87 17.29,-438.02 97.21,-871.32 237.44,-1286.6 113.82,-414.18 280.48,-812 495.85,-1183.59 43.14,-61.53 94.59,-116.68 152.98,-163.81 60.25,-51.64 137.11,-79.72 216.37,-79.25z"/>
  <path class="fil1" d="M19545.01 2738.82c58.58,0 87.95,81.02 87.95,243.05 -9.15,114.59 -47.94,224.71 -112.63,319.68 -77.05,129.07 -174.04,244.91 -287.5,343.5 -117.88,104.01 -250.28,190.3 -393,256.19 -142.85,66.7 -298.7,100.96 -456.32,100.42 -70.11,3.79 -140.16,-8.22 -205.01,-35.3 -64.85,-26.89 -122.79,-68.18 -169.64,-120.55 -87.29,-96.47 -135.25,-222.11 -134.51,-352.27 2.69,-147.37 23.93,-293.88 63.37,-435.89 44.53,-159.74 91.38,-327.6 140.63,-503.79 133.68,-469.69 202.23,-798.96 205.74,-988.08 3.24,-64.04 -7.57,-128.04 -31.59,-187.56 -11.17,-22.08 -28.73,-40.17 -50.44,-52.02 -21.63,-11.82 -46.39,-16.73 -70.95,-14.03 -105.51,0 -218.03,63.38 -337.6,190.22 -133.41,146.42 -246.96,309.86 -337.68,486.14 -229.39,404.3 -361.21,856.61 -385.07,1320.97l21.08 147.9c7.19,52.57 10.81,105.51 10.54,158.54 -2.59,60.71 -18.85,120.12 -47.69,173.69 -28.74,53.49 -69.29,99.79 -118.54,135.45 -102.82,90.34 -235.02,140.05 -371.85,139.97 -37.78,0 -74.75,-11.36 -106.06,-32.52 -31.32,-21.16 -55.62,-51.3 -69.84,-86.29 -41.4,-92.12 -61.18,-192.35 -58.04,-293.34 7.02,-161.13 33.63,-320.76 79.17,-475.53 52.76,-200.76 111.34,-413.89 175.83,-639.32 168.79,-595.34 255,-1039.19 258.51,-1331.6 5.45,-119.93 -13.4,-239.74 -55.45,-352.27 -17.64,-41.02 -47.74,-75.36 -86.2,-98.2 -38.32,-22.74 -82.96,-32.82 -127.38,-28.54 -189.96,0 -378.15,135.6 -564.51,406.85 -186.44,271.25 -353.48,692.17 -501.21,1262.85 -38.7,147.92 -67.98,276.53 -87.94,385.72l-5.26 100.34c49.79,208.41 83.24,420.45 100.23,634.05 0,204.38 -72.07,341.76 -216.29,412.14l-192.61 88.14c-62.07,28.28 -129.54,42.71 -197.79,42.25 -175.81,0 -263.79,-168.15 -263.79,-504.64 0,-336.37 90.84,-993.07 272.56,-1970 66.89,-352.27 100.23,-549.52 100.23,-591.74 0,-285.38 -72.07,-428.02 -216.29,-428.02 -48.12,-0.38 -95.14,14.4 -134.49,42.22 -40.48,28.19 -80.94,57.55 -121.42,88.14 -40.36,30.47 -82.31,62.84 -125.64,96.83 -43.04,28.46 -93.58,43.14 -145.15,42.3 -54.5,0 -81.77,-47.56 -81.77,-142.65 0.2,-95.79 25.14,-189.86 72.26,-273.17 47.12,-83.34 114.93,-152.99 196.78,-202.42 182.83,-131.66 403.64,-199.64 628.69,-193.74 316.52,0 502.95,146.8 559.23,440.31 14.05,88.06 24.67,181.44 31.7,280.04 260.25,-487.26 589.05,-730.89 986.52,-730.89 435.5,0 682.65,207.79 741.21,623.44 21.74,127.39 30.59,256.65 26.45,385.81l0 42.22c228.55,-316.99 499.36,-475.53 812.44,-475.53 443.11,0 664.73,267.74 664.73,803.13 -5.45,275.33 -41.75,549.17 -108.18,816.33 -72.07,311.83 -124.83,535.49 -158.27,671.1 -28.55,102.57 -45.35,207.98 -50.14,314.39 0,133.78 46.65,200.76 139.86,200.76 93.12,0 315.6,-183.19 667.33,-549.52 65.7,-70.49 112.62,-105.68 140.7,-105.68z"/>
  <path class="fil1" d="M12030.64 2036.97c87.97,0 133.71,88.06 133.71,254.44 -4.55,188.44 -44.53,374.25 -117.91,547.75 -84.43,206.48 -203.43,397.09 -351.63,563.66 -167.97,190.51 -370.2,347.64 -596.17,463.24 -265.16,133.4 -558.95,199.29 -855.5,192 -318.83,3.78 -627.23,-113.94 -862.64,-329.37 -246.76,-220.16 -370.2,-537.52 -370.2,-951.98 -4.33,-382.94 55.07,-763.96 175.92,-1127.21 103.94,-314.31 259.05,-609.11 458.96,-872.8 175.55,-232.35 395.89,-427.01 648.01,-572.42 209.53,-127.41 448.64,-197.9 693.74,-204.28 380.47,0 570.69,169.71 570.69,509.05 7.84,162.79 -29.28,324.54 -107.25,467.57 -71.52,117.44 -144.22,176.11 -218.14,176.11 -48.97,0 -97.44,-10.46 -142.17,-30.59 -44.72,-20.24 -84.62,-49.7 -117.15,-86.47 -30.67,-35.66 -68.28,-64.77 -110.41,-85.66 -42.13,-20.87 -88.02,-33.06 -134.87,-35.93 -87.94,0 -330.65,-9.7 -535.5,320.57 -80.45,109.42 -140.05,232.74 -175.89,363.74 -120.12,308.57 -179.8,637.47 -175.81,968.7 31.94,238.62 155.96,455.17 345.52,603.18 112.54,78.25 248.61,115.02 385.07,103.93 242.43,-26.88 465.74,-144.57 625.18,-329.34 119.65,-128.61 225.16,-250.12 338.52,-381.28 113.44,-131.2 213.7,-251.86 299.88,-362.82 86.12,-110.96 151.24,-163.8 196.04,-163.8z"/>
 </g>
</svg>
