<svg xmlns="http://www.w3.org/2000/svg" width="632" height="128" fill="none" viewBox="0 0 632 128"><path fill="#fff" d="M29.184 98.56 0 24.32h20.736l16 38.528L53.504 24.32h18.944l17.92 39.04 14.848-39.04h20.736L98.048 98.56H83.2L63.104 54.272l-19.2 44.288zM137.182 128V24.32h56.704q5.12 0 9.344 2.56t6.656 6.784q2.56 4.224 2.56 9.216V80q0 4.992-2.56 9.216-2.432 4.224-6.656 6.784t-9.344 2.56h-37.12V128zm19.584-49.024h36.096V43.904h-36.096zm83.72 19.584q-5.12 0-9.344-2.56a19.85 19.85 0 0 1-6.784-6.784q-2.432-4.224-2.432-9.216V51.584h55.68v-7.68h-55.68V24.32h56.704q5.12 0 9.344 2.56t6.656 6.784q2.56 4.224 2.56 9.216v55.68zm1.024-19.584h36.096v-10.24H241.51zm84.139 19.584q-5.12 0-9.344-2.56a19.85 19.85 0 0 1-6.784-6.784q-2.432-4.224-2.432-9.216V42.88q0-4.992 2.432-9.216a19.85 19.85 0 0 1 6.784-6.784q4.224-2.56 9.344-2.56h37.248V0h19.584v98.56zm1.152-19.584h36.096V43.904h-36.096zm69.631 19.584V24.32h89.344q5.12 0 9.344 2.56t6.656 6.784q2.56 4.224 2.56 9.216v55.68H484.88V43.904h-24.576V98.56h-19.712V43.904h-24.576V98.56zm124.869 0V24.32h19.584v74.24zm0-78.848V0h19.584v19.712zm34.631 78.848V24.32h56.704q5.12 0 9.344 2.56t6.656 6.784q2.56 4.224 2.56 9.216v55.68h-19.584V43.904h-36.096V98.56z"/></svg>